<?xml version="1.0" encoding="utf-8" ?>
<svg xmlns="http://www.w3.org/2000/svg" xmlns:xlink="http://www.w3.org/1999/xlink" width="512" height="512">
	<defs>
		<linearGradient id="gradient_0" gradientUnits="userSpaceOnUse" x1="524.80511" y1="232.16721" x2="-12.33124" y2="279.689">
			<stop offset="0" stop-color="#6400F8"/>
			<stop offset="1" stop-color="#E60EDE"/>
		</linearGradient>
	</defs>
	<path fill="url(#gradient_0)" d="M94.4145 1.99369L439.368 1.98769C444.09 1.98947 448.939 1.75146 453.625 2.36498C478.226 5.58605 500.836 25.9421 507.305 49.8203L509.741 60.2431C510.175 61.9002 510.115 63.7668 510.132 65.4708L510.161 442.981C510.156 449.746 510.373 454.811 508.236 461.267C500.33 485.139 482.94 502.88 457.97 509.214C453.734 510.288 449.126 509.998 444.787 509.998L163.804 509.993L73.299 509.994C60.5855 509.99 56.0035 510.06 44.0069 505.546C28.3747 499.665 12.6094 484.85 6.97958 468.955C3.68168 459.645 2.04713 447.051 1.99781 437.196L1.98519 73.4351C1.98409 69.4058 1.65291 65.0572 2.20373 61.0825C6.18511 32.3537 23.1041 13.4264 50.7161 4.54398C59.034 1.86822 63.7372 1.99654 72.4541 1.99121L94.4145 1.99369ZM80.5863 11.3748C74.5234 11.3738 68.2964 11.0929 62.2572 11.6361C30.2835 14.5123 12.5455 41.8308 10.7325 71.6873L10.253 408.488L10.863 440.368C12.3099 468.138 27.0742 491.787 55.8579 498.165C64.4032 500.059 72.7619 499.804 81.45 499.808L184.147 499.839L418.234 499.793C428.891 499.786 439.871 500.426 450.422 498.819C476.067 494.913 496.055 474.614 499.113 448.594C499.993 441.107 499.533 433.252 499.536 425.708L499.554 84.8795C499.559 78.0441 500.061 70.7519 499.36 63.9614C496.994 41.0438 477.746 19.6845 455.605 14.0727C447.139 11.9269 438.312 11.9185 429.65 11.9233L80.5863 11.3748Z"/>
	<defs>
		<linearGradient id="gradient_1" gradientUnits="userSpaceOnUse" x1="496.16577" y1="261.99683" x2="14.44949" y2="248.98604">
			<stop offset="0" stop-color="#6700E8"/>
			<stop offset="1" stop-color="#E718F0"/>
		</linearGradient>
	</defs>
	<path fill="url(#gradient_1)" d="M49.8454 24.201L55.4141 22.348C61.6023 20.8139 67.8006 20.9408 74.1293 20.9449L433.484 20.9928C441.539 20.9939 449.221 21.0156 456.962 23.5872C473.767 29.1696 489.311 46.4401 491.309 64.3807C491.617 67.1443 491.501 70.0147 491.505 72.7934L491.487 429.147C491.484 435.765 492 442.829 490.99 449.373C487.644 471.033 469.812 488.938 447.776 490.643C440.818 491.182 433.495 490.755 426.5 490.753L387.343 490.736C385.721 490.72 384.134 490.455 382.516 490.385L78.3247 490.252C73.0187 490.248 67.1039 490.718 61.8943 489.718L61 489.503C38.7847 484.881 22.5075 469.18 20.1024 445.883C19.4833 439.885 19.6419 433.877 19.6393 427.857L19.5803 74.2192C19.4817 70.6096 19.4543 66.948 19.922 63.3628C22.1077 46.6055 33.8745 30.2042 49.8454 24.201ZM93.0483 118.304C89.3714 118.896 87.2595 120.892 88.1268 124.8C89.3063 130.116 96.1581 129.06 100.168 129.095L108.217 129.286C116.35 129.552 117.361 133.242 122.543 139.277L209.859 244.735C213.353 248.892 216.986 252.963 220.123 257.398C215.974 261.162 212.519 265.865 208.9 270.143L114.158 381.469C112.172 383.715 112.166 383.727 109.157 383.743C104.627 383.767 89.0255 382.128 88.6638 389.117C88.4773 392.721 90.3989 394.947 93.8508 395.164C102.047 395.679 111.495 395.483 120.007 395.669L180.123 395.763C182.482 395.774 185.299 396.081 187.575 395.488C191.622 394.435 189.351 387.138 187.843 384.846C190.875 378.818 195.102 373.676 199.437 368.545L236.878 324.523C243.194 316.926 249.738 309.384 255.386 301.274C257.765 303.4 259.776 306.223 261.813 308.69L319.979 378.597C321.846 380.78 324.576 383.181 325.916 385.685L325.626 385.679C319.2 385.636 320.014 396.22 326.305 396.473C331.698 396.69 337.078 395.834 342.465 395.784L388.45 395.715C396.786 395.708 405.316 395.289 413.625 395.681L413.952 395.613C416.19 395.18 418.748 395.979 420.875 394.839L421.32 394.607C422.427 393.979 423.141 392.265 423.411 391.079C424.889 384.6 419.103 384.361 414.369 384.363L404.319 384.337C401.745 384.258 401.184 384.43 399.492 382.6L296.303 256.375L313.642 235.431L386.633 149.878C389.837 146.091 401.341 130.133 405.756 129.586C408.975 129.188 420.613 130.412 422.531 127.898C424.942 124.739 424.37 118.733 419.625 118.391C413.482 117.948 407.116 118.277 400.951 118.274L330.907 118.265C327.649 118.276 324.3 118.022 322.419 121.301C319.111 127.067 324.318 128.198 328.642 128.803C327.063 131.018 325.212 133.002 323.546 135.148L268.137 201.723C265.352 205.017 262.469 208.243 260.125 211.875L186.124 119.895C184.228 117.292 181.451 118.244 178.607 118.244L93.0483 118.304Z"/>
	<path fill="#AA07F1" d="M383.936 129.237L390.523 128.947L389.375 130.371C387.608 132.917 385.327 135.268 383.364 137.696L288.781 247.512L281.671 238.737L267.114 220.33C268.434 217.957 270.611 215.648 272.3 213.511L335.316 138.644C338.586 135.127 340.507 134.188 342 129.717C346.734 129.167 351.644 129.348 356.405 129.344L383.936 129.237Z"/>
	<path fill="#AA07F1" d="M226.324 265.22L244.512 287.389C246.076 289.376 247.753 291.332 249.033 293.517L172.828 384.144C169.699 384.673 166.307 384.441 163.129 384.445L147.511 384.418L124.195 384.546C126.085 383.661 127.751 381.375 129.195 379.835L226.324 265.22Z"/>
	<path fill="#AA07F1" d="M126.261 129.104L173.496 129.629C177.618 129.914 177.312 131.695 179.869 134.253L187.333 141.583L245.688 211.106L321.005 305.387L387.749 385.225C380.596 384.087 373.37 384.391 366.15 384.391L337.88 384.381C336.095 380.915 333.412 377.81 331.018 374.75L232.873 255.445L207.869 224.264L143.647 147.383C138.124 140.966 133.1 134.19 126.261 129.104Z"/>
</svg>
